<svg width="16" height="16" viewBox="0 0 16 16" fill="none" xmlns="http://www.w3.org/2000/svg">
<style>
    path {
        fill: #E8A900;
    }
    line {
        stroke: #D37000;
    }
    circle {
        fill: #D37000;
    }
    @media (prefers-color-scheme: dark) {
        path {
            fill: #F17F00;
        }
        line {
            stroke: #FFD85A;
        }
        circle {
            fill: #FFD85A;
        }
    }
</style>
<g clip-path="url(#clip0)">
<path opacity="0.25" d="M14.3449 1.6001L8.966 6.93994C9.05975 7.10791 9.04999 7.3996 8.94647 7.55713C8.80546 7.77172 8.61314 7.80062 8.48163 7.84619L8.02411 9.52314L11.8037 10.7048C11.826 10.6601 11.8975 10.5539 12.0048 10.4869C12.1121 10.4199 12.2445 10.459 12.2974 10.4869L14.3449 1.6001Z" fill="#E8A900"/>
<path opacity="0.25" d="M14.1474 1.30437L8.66666 6.56863C8.47933 6.50619 8.34724 6.53305 8.12389 6.62627C7.98612 6.68377 7.82944 6.89019 7.82944 7.03658L6.07282 7.46908L4.81584 3.56513L4.81827 3.56398C4.86361 3.54263 4.9349 3.50905 5.00316 3.40523C5.04952 3.3347 5.07347 3.25288 5.05359 3.18207L14.1474 1.30437Z" fill="#E8A900"/>
<path opacity="0.25" d="M5.54474 7.6427L4.30059 3.75684L3.90808 7.6427C3.96131 7.65602 4.0837 7.69863 4.14739 7.76251C4.23788 7.85836 4.26502 7.93552 4.26728 7.96212L5.54474 7.6427Z" fill="#E8A900"/>
<path opacity="0.25" d="M6.16111 8.93335L5.84178 7.96191L4.5415 8.25781C4.54692 8.26784 4.54178 8.3125 4.5416 8.34375C4.54124 8.40588 4.50434 8.42542 4.51769 8.42764L6.16111 8.93335Z" fill="#E8A900"/>
<path opacity="0.25" d="M7.61963 9.80774L6.57715 9.4873L7.07469 11.0463C7.08903 11.0383 7.12776 11.0253 7.16602 11.0253C7.20427 11.0253 7.24844 11.0383 7.26598 11.0463L7.61963 9.80774Z" fill="#E8A900"/>
<path opacity="0.25" d="M11.7747 11.0863L7.99394 9.94092L7.61963 11.1837C7.64447 11.1937 7.70913 11.2316 7.76903 11.3035C7.82892 11.3753 7.85398 11.4432 7.85902 11.4682L11.7747 11.0863Z" fill="#E8A900"/>
<path opacity="0.25" d="M6.51697 9.00612L6.16101 7.8733L7.91647 7.43799C7.93363 7.47076 7.98107 7.55129 8.0335 7.61121C8.08593 7.67113 8.15833 7.7017 8.18798 7.7095L7.71518 9.38066L6.51697 9.00612Z" fill="#E8A900"/>
<path d="M2.96375 10.9912C3.55071 10.4042 4.3664 10.2683 4.78566 10.6875C5.20491 11.1068 5.06896 11.9225 4.482 12.5095C3.89505 13.0964 0.382719 15.0905 0.382719 15.0905C0.382719 15.0905 2.37679 11.5782 2.96375 10.9912Z" fill="#E8A900"/>
<line x1="4.4315" y1="3.23162" x2="14.3202" y2="1.21268" stroke="#D37000" stroke-width="0.5"/>
<line x1="12.1248" y1="11.0919" x2="14.2923" y2="1.2208" stroke="#D37000" stroke-width="0.5"/>
<line x1="4.64054" y1="3.13871" x2="4.12478" y2="8.28327" stroke="#D37000" stroke-width="0.5"/>
<line x1="3.96667" y1="8.16638" x2="8.52147" y2="7.04883" stroke="#D37000" stroke-width="0.5"/>
<line x1="8.62236" y1="7.09627" x2="7.35765" y2="11.5743" stroke="#D37000" stroke-width="0.5"/>
<line x1="7.19105" y1="11.3136" x2="12.2933" y2="10.8358" stroke="#D37000" stroke-width="0.5"/>
<line x1="7.04747" y1="11.5228" x2="4.39402" y2="3.20549" stroke="#D37000" stroke-width="0.5"/>
<line x1="12.243" y1="11.0519" x2="3.95245" y2="8.49744" stroke="#D37000" stroke-width="0.5"/>
<line x1="8.40559" y1="7.16774" x2="14.3979" y2="1.25536" stroke="#D37000" stroke-width="0.5"/>
<circle cx="4.48151" cy="3.24815" r="0.572525" transform="rotate(45 4.48151 3.24815)" fill="#D37000"/>
<circle cx="8.57117" cy="7.15245" r="0.572525" transform="rotate(45 8.57117 7.15245)" fill="#D37000"/>
<circle cx="14.349" cy="1.25917" r="0.566164" transform="rotate(45 14.349 1.25917)" fill="#D37000"/>
<circle cx="4.02625" cy="8.2584" r="0.572525" transform="rotate(45 4.02625 8.2584)" fill="#D37000"/>
<circle cx="12.2247" cy="10.9913" r="0.572525" transform="rotate(45 12.2247 10.9913)" fill="#D37000"/>
<circle cx="7.21436" cy="11.4469" r="0.572525" transform="rotate(45 7.21436 11.4469)" fill="#D37000"/>
<circle cx="4.40381" cy="3.41506" r="0.965383" transform="rotate(45 4.40381 3.41506)" fill="#D37000"/>
<circle cx="8.34863" cy="7.3594" r="0.965383" transform="rotate(45 8.34863 7.3594)" fill="#D37000"/>
<circle cx="14.2646" cy="1.44338" r="0.965383" transform="rotate(45 14.2646 1.44338)" fill="#D37000"/>
<circle cx="3.94922" cy="8.42141" r="0.965383" transform="rotate(45 3.94922 8.42141)" fill="#D37000"/>
<circle cx="12.1411" cy="11.1519" r="0.965383" transform="rotate(45 12.1411 11.1519)" fill="#D37000"/>
<circle cx="7.13525" cy="11.607" r="0.965383" transform="rotate(45 7.13525 11.607)" fill="#D37000"/>
</g>
</svg>
